<svg xmlns="http://www.w3.org/2000/svg" xmlns:xlink="http://www.w3.org/1999/xlink" width="100" zoomAndPan="magnify" viewBox="0 0 75 74.999997" height="100" preserveAspectRatio="xMidYMid meet" version="1.0"><defs><clipPath id="be5d10da47"><path d="M 16.859375 14.15625 L 58.109375 14.15625 L 58.109375 55.40625 L 16.859375 55.40625 Z M 16.859375 14.15625 " clip-rule="nonzero"/></clipPath><clipPath id="920616d8f3"><path d="M 47.765625 55.382812 L 27.203125 55.382812 C 27.359375 54.542969 28.097656 53.90625 28.980469 53.90625 L 45.984375 53.90625 C 46.867188 53.90625 47.605469 54.542969 47.765625 55.382812 Z M 47.058594 42.078125 C 46.871094 42.078125 46.691406 42.113281 46.515625 42.183594 C 46.320312 42.261719 46.101562 42.25 45.914062 42.15625 C 45.726562 42.0625 45.589844 41.890625 45.535156 41.6875 C 45.359375 41.046875 44.777344 40.601562 44.113281 40.601562 C 43.300781 40.601562 42.640625 41.261719 42.640625 42.078125 L 42.640625 43.558594 L 48.53125 43.558594 C 48.53125 42.742188 47.871094 42.078125 47.058594 42.078125 Z M 38.453125 31.089844 C 38.625 30.742188 38.609375 30.355469 38.40625 30.03125 C 38.203125 29.703125 37.867188 29.511719 37.484375 29.511719 C 37.097656 29.511719 36.761719 29.703125 36.5625 30.027344 C 36.359375 30.355469 36.339844 30.742188 36.511719 31.085938 L 37.484375 33.035156 Z M 30.855469 40.601562 C 30.191406 40.601562 29.605469 41.046875 29.433594 41.6875 C 29.378906 41.890625 29.238281 42.0625 29.050781 42.15625 C 28.863281 42.25 28.644531 42.261719 28.449219 42.183594 C 28.277344 42.113281 28.09375 42.078125 27.90625 42.078125 C 27.09375 42.078125 26.433594 42.742188 26.433594 43.558594 L 32.328125 43.558594 L 32.328125 42.078125 C 32.328125 41.261719 31.664062 40.601562 30.855469 40.601562 Z M 16.859375 45.035156 L 58.109375 45.035156 L 58.109375 47.34375 C 58.109375 47.703125 57.820312 47.992188 57.464844 47.992188 L 17.503906 47.992188 C 17.148438 47.992188 16.859375 47.703125 16.859375 47.34375 Z M 42.640625 46.511719 C 42.640625 46.921875 42.96875 47.253906 43.375 47.253906 L 44.847656 47.253906 C 45.257812 47.253906 45.585938 46.921875 45.585938 46.511719 C 45.585938 46.105469 45.257812 45.773438 44.847656 45.773438 L 43.375 45.773438 C 42.96875 45.773438 42.640625 46.105469 42.640625 46.511719 Z M 33.800781 46.511719 C 33.800781 46.921875 34.128906 47.253906 34.535156 47.253906 L 40.429688 47.253906 C 40.835938 47.253906 41.167969 46.921875 41.167969 46.511719 C 41.167969 46.105469 40.835938 45.773438 40.429688 45.773438 L 34.535156 45.773438 C 34.128906 45.773438 33.800781 46.105469 33.800781 46.511719 Z M 29.378906 46.511719 C 29.378906 46.921875 29.710938 47.253906 30.117188 47.253906 L 31.589844 47.253906 C 31.996094 47.253906 32.328125 46.921875 32.328125 46.511719 C 32.328125 46.105469 31.996094 45.773438 31.589844 45.773438 L 30.117188 45.773438 C 29.710938 45.773438 29.378906 46.105469 29.378906 46.511719 Z M 34.578125 49.46875 L 33.59375 52.425781 L 41.371094 52.425781 L 40.390625 49.46875 Z M 35.273438 35.984375 C 35.273438 36.085938 35.355469 36.164062 35.453125 36.164062 L 39.511719 36.164062 C 39.613281 36.164062 39.691406 36.085938 39.691406 35.984375 L 39.691406 34.6875 L 38.304688 34.6875 L 38.140625 35.019531 C 38.015625 35.269531 37.761719 35.425781 37.484375 35.425781 C 37.203125 35.425781 36.949219 35.269531 36.824219 35.019531 L 36.660156 34.6875 L 35.273438 34.6875 Z M 37.484375 24.339844 C 38.296875 24.339844 38.957031 23.675781 38.957031 22.859375 C 38.957031 22.046875 38.296875 21.382812 37.484375 21.382812 C 36.671875 21.382812 36.011719 22.046875 36.011719 22.859375 C 36.011719 23.675781 36.671875 24.339844 37.484375 24.339844 Z M 37.484375 14.179688 C 36.734375 14.773438 36.054688 15.453125 35.445312 16.210938 L 39.519531 16.210938 C 38.914062 15.453125 38.234375 14.773438 37.484375 14.179688 Z M 32.617188 28.152344 C 32.035156 25.246094 32.347656 22.15625 33.503906 19.457031 C 33.761719 18.84375 34.066406 18.25 34.410156 17.6875 L 40.554688 17.6875 C 40.898438 18.25 41.203125 18.84375 41.464844 19.457031 C 42.617188 22.15625 42.933594 25.246094 42.351562 28.152344 C 42.28125 28.492188 42.199219 28.839844 42.105469 29.179688 L 40.996094 33.207031 L 39.042969 33.207031 L 39.769531 31.75 C 40.171875 30.949219 40.128906 30.015625 39.660156 29.253906 C 39.1875 28.488281 38.375 28.035156 37.484375 28.035156 C 36.589844 28.035156 35.777344 28.488281 35.308594 29.253906 C 34.839844 30.015625 34.796875 30.949219 35.195312 31.75 L 35.921875 33.207031 L 33.96875 33.207031 L 32.859375 29.179688 C 32.765625 28.839844 32.683594 28.492188 32.617188 28.152344 Z M 34.535156 22.859375 C 34.535156 24.492188 35.859375 25.816406 37.484375 25.816406 C 39.109375 25.816406 40.429688 24.492188 40.429688 22.859375 C 40.429688 21.230469 39.109375 19.90625 37.484375 19.90625 C 35.859375 19.90625 34.535156 21.230469 34.535156 22.859375 Z M 58.109375 20.550781 L 58.109375 43.558594 L 50.003906 43.558594 C 50.003906 41.925781 48.683594 40.601562 47.058594 40.601562 C 46.929688 40.601562 46.804688 40.609375 46.679688 40.625 C 46.164062 39.714844 45.191406 39.121094 44.113281 39.121094 C 42.488281 39.121094 41.167969 40.449219 41.167969 42.078125 L 41.167969 43.558594 L 33.800781 43.558594 L 33.800781 42.078125 C 33.800781 40.449219 32.476562 39.121094 30.855469 39.121094 C 29.777344 39.121094 28.800781 39.714844 28.289062 40.625 C 28.164062 40.609375 28.035156 40.601562 27.90625 40.601562 C 26.28125 40.601562 24.960938 41.925781 24.960938 43.558594 L 16.859375 43.558594 L 16.859375 20.550781 C 16.859375 20.195312 17.148438 19.90625 17.503906 19.90625 L 31.75 19.90625 C 30.863281 22.46875 30.628906 25.285156 31.085938 27.976562 C 29.265625 29.421875 28.308594 31.703125 28.566406 34.039062 L 28.648438 34.769531 C 28.675781 35.015625 28.824219 35.234375 29.046875 35.347656 C 29.152344 35.398438 29.265625 35.425781 29.378906 35.425781 C 29.507812 35.425781 29.632812 35.394531 29.746094 35.328125 L 32.578125 33.707031 L 32.699219 34.144531 C 32.789062 34.464844 33.078125 34.6875 33.410156 34.6875 L 33.800781 34.6875 L 33.800781 35.984375 C 33.800781 36.898438 34.542969 37.644531 35.453125 37.644531 L 39.511719 37.644531 C 40.425781 37.644531 41.167969 36.898438 41.167969 35.984375 L 41.167969 34.6875 L 41.554688 34.6875 C 41.886719 34.6875 42.179688 34.464844 42.265625 34.144531 L 42.386719 33.707031 L 45.21875 35.328125 C 45.332031 35.394531 45.460938 35.425781 45.585938 35.425781 C 45.699219 35.425781 45.816406 35.398438 45.917969 35.347656 C 46.140625 35.234375 46.289062 35.015625 46.316406 34.769531 L 46.398438 34.039062 C 46.65625 31.703125 45.699219 29.421875 43.878906 27.976562 C 44.335938 25.285156 44.101562 22.46875 43.214844 19.90625 L 57.464844 19.90625 C 57.820312 19.90625 58.109375 20.195312 58.109375 20.550781 Z M 19.804688 33.949219 C 19.804688 33.539062 19.476562 33.207031 19.066406 33.207031 C 18.660156 33.207031 18.332031 33.539062 18.332031 33.949219 L 18.332031 39.859375 C 18.332031 40.269531 18.660156 40.601562 19.066406 40.601562 C 19.476562 40.601562 19.804688 40.269531 19.804688 39.859375 Z M 19.804688 24.339844 C 19.804688 23.929688 19.476562 23.601562 19.066406 23.601562 C 18.660156 23.601562 18.332031 23.929688 18.332031 24.339844 L 18.332031 30.992188 C 18.332031 31.398438 18.660156 31.730469 19.066406 31.730469 C 19.476562 31.730469 19.804688 31.398438 19.804688 30.992188 Z M 22.75 40.601562 C 22.75 40.191406 22.421875 39.859375 22.015625 39.859375 C 21.609375 39.859375 21.277344 40.191406 21.277344 40.601562 L 21.277344 42.078125 C 21.277344 42.488281 21.609375 42.816406 22.015625 42.816406 C 22.421875 42.816406 22.75 42.488281 22.75 42.078125 Z M 22.75 32.46875 C 22.75 32.0625 22.421875 31.730469 22.015625 31.730469 C 21.609375 31.730469 21.277344 32.0625 21.277344 32.46875 L 21.277344 37.644531 C 21.277344 38.050781 21.609375 38.382812 22.015625 38.382812 C 22.421875 38.382812 22.75 38.050781 22.75 37.644531 Z M 22.75 22.121094 C 22.75 21.714844 22.421875 21.382812 22.015625 21.382812 C 21.609375 21.382812 21.277344 21.714844 21.277344 22.121094 L 21.277344 29.511719 C 21.277344 29.921875 21.609375 30.253906 22.015625 30.253906 C 22.421875 30.253906 22.75 29.921875 22.75 29.511719 Z M 25.699219 34.6875 C 25.699219 34.277344 25.367188 33.949219 24.960938 33.949219 C 24.554688 33.949219 24.222656 34.277344 24.222656 34.6875 L 24.222656 39.121094 C 24.222656 39.53125 24.554688 39.859375 24.960938 39.859375 C 25.367188 39.859375 25.699219 39.53125 25.699219 39.121094 Z M 25.699219 25.816406 C 25.699219 25.410156 25.367188 25.078125 24.960938 25.078125 C 24.554688 25.078125 24.222656 25.410156 24.222656 25.816406 L 24.222656 31.730469 C 24.222656 32.140625 24.554688 32.46875 24.960938 32.46875 C 25.367188 32.46875 25.699219 32.140625 25.699219 31.730469 Z M 27.171875 24.339844 C 27.171875 24.746094 27.5 25.078125 27.90625 25.078125 C 28.3125 25.078125 28.644531 24.746094 28.644531 24.339844 L 28.644531 22.121094 C 28.644531 21.714844 28.3125 21.382812 27.90625 21.382812 C 27.5 21.382812 27.171875 21.714844 27.171875 22.121094 Z M 27.171875 28.773438 C 27.171875 29.183594 27.5 29.511719 27.90625 29.511719 C 28.3125 29.511719 28.644531 29.183594 28.644531 28.773438 L 28.644531 27.296875 C 28.644531 26.886719 28.3125 26.558594 27.90625 26.558594 C 27.5 26.558594 27.171875 26.886719 27.171875 27.296875 Z M 28.644531 36.164062 C 28.644531 35.757812 28.3125 35.425781 27.90625 35.425781 C 27.5 35.425781 27.171875 35.757812 27.171875 36.164062 L 27.171875 38.382812 C 27.171875 38.789062 27.5 39.121094 27.90625 39.121094 C 28.3125 39.121094 28.644531 38.789062 28.644531 38.382812 Z M 36.011719 39.121094 C 36.011719 38.714844 35.679688 38.382812 35.273438 38.382812 C 34.867188 38.382812 34.535156 38.714844 34.535156 39.121094 L 34.535156 40.601562 C 34.535156 41.007812 34.867188 41.339844 35.273438 41.339844 C 35.679688 41.339844 36.011719 41.007812 36.011719 40.601562 Z M 38.21875 39.859375 C 38.21875 39.453125 37.890625 39.121094 37.484375 39.121094 C 37.078125 39.121094 36.746094 39.453125 36.746094 39.859375 L 36.746094 42.078125 C 36.746094 42.488281 37.078125 42.816406 37.484375 42.816406 C 37.890625 42.816406 38.21875 42.488281 38.21875 42.078125 Z M 40.429688 39.121094 C 40.429688 38.714844 40.101562 38.382812 39.691406 38.382812 C 39.285156 38.382812 38.957031 38.714844 38.957031 39.121094 L 38.957031 40.601562 C 38.957031 41.007812 39.285156 41.339844 39.691406 41.339844 C 40.101562 41.339844 40.429688 41.007812 40.429688 40.601562 Z M 47.796875 36.164062 C 47.796875 35.757812 47.464844 35.425781 47.058594 35.425781 C 46.652344 35.425781 46.324219 35.757812 46.324219 36.164062 L 46.324219 38.382812 C 46.324219 38.789062 46.652344 39.121094 47.058594 39.121094 C 47.464844 39.121094 47.796875 38.789062 47.796875 38.382812 Z M 47.796875 27.296875 C 47.796875 26.886719 47.464844 26.558594 47.058594 26.558594 C 46.652344 26.558594 46.324219 26.886719 46.324219 27.296875 L 46.324219 28.773438 C 46.324219 29.183594 46.652344 29.511719 47.058594 29.511719 C 47.464844 29.511719 47.796875 29.183594 47.796875 28.773438 Z M 47.796875 22.121094 C 47.796875 21.714844 47.464844 21.382812 47.058594 21.382812 C 46.652344 21.382812 46.324219 21.714844 46.324219 22.121094 L 46.324219 24.339844 C 46.324219 24.746094 46.652344 25.078125 47.058594 25.078125 C 47.464844 25.078125 47.796875 24.746094 47.796875 24.339844 Z M 50.742188 34.6875 C 50.742188 34.277344 50.414062 33.949219 50.003906 33.949219 C 49.597656 33.949219 49.269531 34.277344 49.269531 34.6875 L 49.269531 39.121094 C 49.269531 39.53125 49.597656 39.859375 50.003906 39.859375 C 50.414062 39.859375 50.742188 39.53125 50.742188 39.121094 Z M 50.742188 25.816406 C 50.742188 25.410156 50.414062 25.078125 50.003906 25.078125 C 49.597656 25.078125 49.269531 25.410156 49.269531 25.816406 L 49.269531 31.730469 C 49.269531 32.140625 49.597656 32.46875 50.003906 32.46875 C 50.414062 32.46875 50.742188 32.140625 50.742188 31.730469 Z M 53.6875 40.601562 C 53.6875 40.191406 53.359375 39.859375 52.953125 39.859375 C 52.546875 39.859375 52.214844 40.191406 52.214844 40.601562 L 52.214844 42.078125 C 52.214844 42.488281 52.546875 42.816406 52.953125 42.816406 C 53.359375 42.816406 53.6875 42.488281 53.6875 42.078125 Z M 53.6875 32.46875 C 53.6875 32.0625 53.359375 31.730469 52.953125 31.730469 C 52.546875 31.730469 52.214844 32.0625 52.214844 32.46875 L 52.214844 37.644531 C 52.214844 38.050781 52.546875 38.382812 52.953125 38.382812 C 53.359375 38.382812 53.6875 38.050781 53.6875 37.644531 Z M 53.6875 22.121094 C 53.6875 21.714844 53.359375 21.382812 52.953125 21.382812 C 52.546875 21.382812 52.214844 21.714844 52.214844 22.121094 L 52.214844 29.511719 C 52.214844 29.921875 52.546875 30.253906 52.953125 30.253906 C 53.359375 30.253906 53.6875 29.921875 53.6875 29.511719 Z M 56.636719 33.949219 C 56.636719 33.539062 56.304688 33.207031 55.898438 33.207031 C 55.492188 33.207031 55.160156 33.539062 55.160156 33.949219 L 55.160156 39.859375 C 55.160156 40.269531 55.492188 40.601562 55.898438 40.601562 C 56.304688 40.601562 56.636719 40.269531 56.636719 39.859375 Z M 56.636719 24.339844 C 56.636719 23.929688 56.304688 23.601562 55.898438 23.601562 C 55.492188 23.601562 55.160156 23.929688 55.160156 24.339844 L 55.160156 30.992188 C 55.160156 31.398438 55.492188 31.730469 55.898438 31.730469 C 56.304688 31.730469 56.636719 31.398438 56.636719 30.992188 Z M 30.003906 33.480469 L 32.171875 32.234375 L 31.457031 29.632812 C 30.480469 30.660156 29.949219 32.042969 30.003906 33.480469 Z M 43.511719 29.632812 L 42.792969 32.234375 L 44.964844 33.480469 C 45.015625 32.042969 44.484375 30.660156 43.511719 29.632812 Z M 43.511719 29.632812 " clip-rule="nonzero"/></clipPath><linearGradient x1="28.000011" gradientTransform="matrix(0.0920759, 0, 0, 0.0923907, 13.911638, 11.03514)" y1="475.99998" x2="474.985993" gradientUnits="userSpaceOnUse" y2="29.013998" id="e716a4b581"><stop stop-opacity="1" stop-color="rgb(36.898804%, 73.699951%, 89.7995%)" offset="0"/><stop stop-opacity="1" stop-color="rgb(36.898804%, 73.699951%, 89.7995%)" offset="0.0625"/><stop stop-opacity="1" stop-color="rgb(36.898804%, 73.699951%, 89.7995%)" offset="0.09375"/><stop stop-opacity="1" stop-color="rgb(37.210083%, 73.458862%, 89.802551%)" offset="0.0976563"/><stop stop-opacity="1" stop-color="rgb(37.521362%, 73.219299%, 89.807129%)" offset="0.101562"/><stop stop-opacity="1" stop-color="rgb(37.844849%, 72.969055%, 89.810181%)" offset="0.105469"/><stop stop-opacity="1" stop-color="rgb(38.169861%, 72.718811%, 89.813232%)" offset="0.109375"/><stop stop-opacity="1" stop-color="rgb(38.494873%, 72.468567%, 89.816284%)" offset="0.113281"/><stop stop-opacity="1" stop-color="rgb(38.819885%, 72.218323%, 89.820862%)" offset="0.117188"/><stop stop-opacity="1" stop-color="rgb(39.143372%, 71.968079%, 89.823914%)" offset="0.121094"/><stop stop-opacity="1" stop-color="rgb(39.468384%, 71.717834%, 89.828491%)" offset="0.125"/><stop stop-opacity="1" stop-color="rgb(39.793396%, 71.46759%, 89.831543%)" offset="0.128906"/><stop stop-opacity="1" stop-color="rgb(40.118408%, 71.217346%, 89.836121%)" offset="0.132812"/><stop stop-opacity="1" stop-color="rgb(40.441895%, 70.967102%, 89.839172%)" offset="0.136719"/><stop stop-opacity="1" stop-color="rgb(40.766907%, 70.716858%, 89.84375%)" offset="0.140625"/><stop stop-opacity="1" stop-color="rgb(41.090393%, 70.466614%, 89.846802%)" offset="0.144531"/><stop stop-opacity="1" stop-color="rgb(41.415405%, 70.21637%, 89.851379%)" offset="0.148438"/><stop stop-opacity="1" stop-color="rgb(41.740417%, 69.966125%, 89.854431%)" offset="0.152344"/><stop stop-opacity="1" stop-color="rgb(42.06543%, 69.715881%, 89.859009%)" offset="0.15625"/><stop stop-opacity="1" stop-color="rgb(42.388916%, 69.465637%, 89.862061%)" offset="0.160156"/><stop stop-opacity="1" stop-color="rgb(42.713928%, 69.215393%, 89.866638%)" offset="0.164063"/><stop stop-opacity="1" stop-color="rgb(43.03894%, 68.965149%, 89.86969%)" offset="0.167969"/><stop stop-opacity="1" stop-color="rgb(43.363953%, 68.714905%, 89.874268%)" offset="0.171875"/><stop stop-opacity="1" stop-color="rgb(43.687439%, 68.464661%, 89.877319%)" offset="0.175781"/><stop stop-opacity="1" stop-color="rgb(44.012451%, 68.214417%, 89.881897%)" offset="0.179688"/><stop stop-opacity="1" stop-color="rgb(44.337463%, 67.964172%, 89.884949%)" offset="0.183594"/><stop stop-opacity="1" stop-color="rgb(44.662476%, 67.713928%, 89.889526%)" offset="0.1875"/><stop stop-opacity="1" stop-color="rgb(44.985962%, 67.463684%, 89.892578%)" offset="0.191406"/><stop stop-opacity="1" stop-color="rgb(45.310974%, 67.21344%, 89.897156%)" offset="0.195313"/><stop stop-opacity="1" stop-color="rgb(45.635986%, 66.963196%, 89.900208%)" offset="0.199219"/><stop stop-opacity="1" stop-color="rgb(45.960999%, 66.712952%, 89.904785%)" offset="0.203125"/><stop stop-opacity="1" stop-color="rgb(46.284485%, 66.462708%, 89.907837%)" offset="0.207031"/><stop stop-opacity="1" stop-color="rgb(46.609497%, 66.212463%, 89.912415%)" offset="0.210938"/><stop stop-opacity="1" stop-color="rgb(46.934509%, 65.962219%, 89.915466%)" offset="0.214844"/><stop stop-opacity="1" stop-color="rgb(47.259521%, 65.711975%, 89.920044%)" offset="0.21875"/><stop stop-opacity="1" stop-color="rgb(47.583008%, 65.461731%, 89.923096%)" offset="0.222656"/><stop stop-opacity="1" stop-color="rgb(47.90802%, 65.211487%, 89.926147%)" offset="0.226563"/><stop stop-opacity="1" stop-color="rgb(48.233032%, 64.961243%, 89.929199%)" offset="0.230469"/><stop stop-opacity="1" stop-color="rgb(48.558044%, 64.710999%, 89.933777%)" offset="0.234375"/><stop stop-opacity="1" stop-color="rgb(48.881531%, 64.460754%, 89.936829%)" offset="0.238281"/><stop stop-opacity="1" stop-color="rgb(49.206543%, 64.21051%, 89.941406%)" offset="0.242188"/><stop stop-opacity="1" stop-color="rgb(49.531555%, 63.960266%, 89.944458%)" offset="0.246094"/><stop stop-opacity="1" stop-color="rgb(49.856567%, 63.710022%, 89.949036%)" offset="0.25"/><stop stop-opacity="1" stop-color="rgb(50.180054%, 63.459778%, 89.952087%)" offset="0.253906"/><stop stop-opacity="1" stop-color="rgb(50.505066%, 63.209534%, 89.956665%)" offset="0.257813"/><stop stop-opacity="1" stop-color="rgb(50.828552%, 62.95929%, 89.959717%)" offset="0.261719"/><stop stop-opacity="1" stop-color="rgb(51.153564%, 62.709045%, 89.964294%)" offset="0.265625"/><stop stop-opacity="1" stop-color="rgb(51.478577%, 62.458801%, 89.967346%)" offset="0.269531"/><stop stop-opacity="1" stop-color="rgb(51.803589%, 62.208557%, 89.971924%)" offset="0.273438"/><stop stop-opacity="1" stop-color="rgb(52.127075%, 61.956787%, 89.974976%)" offset="0.277344"/><stop stop-opacity="1" stop-color="rgb(52.452087%, 61.706543%, 89.979553%)" offset="0.28125"/><stop stop-opacity="1" stop-color="rgb(52.7771%, 61.456299%, 89.982605%)" offset="0.285156"/><stop stop-opacity="1" stop-color="rgb(53.102112%, 61.206055%, 89.987183%)" offset="0.289062"/><stop stop-opacity="1" stop-color="rgb(53.425598%, 60.955811%, 89.990234%)" offset="0.292969"/><stop stop-opacity="1" stop-color="rgb(53.75061%, 60.705566%, 89.994812%)" offset="0.296875"/><stop stop-opacity="1" stop-color="rgb(54.075623%, 60.455322%, 89.997864%)" offset="0.300781"/><stop stop-opacity="1" stop-color="rgb(54.400635%, 60.205078%, 90.002441%)" offset="0.304688"/><stop stop-opacity="1" stop-color="rgb(54.724121%, 59.954834%, 90.005493%)" offset="0.308594"/><stop stop-opacity="1" stop-color="rgb(55.049133%, 59.70459%, 90.010071%)" offset="0.3125"/><stop stop-opacity="1" stop-color="rgb(55.374146%, 59.454346%, 90.013123%)" offset="0.316406"/><stop stop-opacity="1" stop-color="rgb(55.699158%, 59.204102%, 90.0177%)" offset="0.320313"/><stop stop-opacity="1" stop-color="rgb(56.022644%, 58.953857%, 90.020752%)" offset="0.324219"/><stop stop-opacity="1" stop-color="rgb(56.347656%, 58.703613%, 90.02533%)" offset="0.328125"/><stop stop-opacity="1" stop-color="rgb(56.672668%, 58.453369%, 90.028381%)" offset="0.332031"/><stop stop-opacity="1" stop-color="rgb(56.997681%, 58.203125%, 90.032959%)" offset="0.335938"/><stop stop-opacity="1" stop-color="rgb(57.321167%, 57.952881%, 90.036011%)" offset="0.339844"/><stop stop-opacity="1" stop-color="rgb(57.646179%, 57.702637%, 90.039062%)" offset="0.34375"/><stop stop-opacity="1" stop-color="rgb(57.971191%, 57.452393%, 90.042114%)" offset="0.347656"/><stop stop-opacity="1" stop-color="rgb(58.296204%, 57.202148%, 90.046692%)" offset="0.351562"/><stop stop-opacity="1" stop-color="rgb(58.61969%, 56.951904%, 90.049744%)" offset="0.355469"/><stop stop-opacity="1" stop-color="rgb(58.944702%, 56.70166%, 90.054321%)" offset="0.359375"/><stop stop-opacity="1" stop-color="rgb(59.269714%, 56.451416%, 90.057373%)" offset="0.363281"/><stop stop-opacity="1" stop-color="rgb(59.594727%, 56.201172%, 90.061951%)" offset="0.367188"/><stop stop-opacity="1" stop-color="rgb(59.918213%, 55.950928%, 90.065002%)" offset="0.371094"/><stop stop-opacity="1" stop-color="rgb(60.243225%, 55.700684%, 90.06958%)" offset="0.375"/><stop stop-opacity="1" stop-color="rgb(60.566711%, 55.450439%, 90.072632%)" offset="0.378906"/><stop stop-opacity="1" stop-color="rgb(60.891724%, 55.200195%, 90.077209%)" offset="0.382813"/><stop stop-opacity="1" stop-color="rgb(61.216736%, 54.949951%, 90.080261%)" offset="0.386719"/><stop stop-opacity="1" stop-color="rgb(61.541748%, 54.699707%, 90.084839%)" offset="0.390625"/><stop stop-opacity="1" stop-color="rgb(61.865234%, 54.449463%, 90.087891%)" offset="0.394531"/><stop stop-opacity="1" stop-color="rgb(62.190247%, 54.199219%, 90.092468%)" offset="0.398438"/><stop stop-opacity="1" stop-color="rgb(62.515259%, 53.948975%, 90.09552%)" offset="0.402344"/><stop stop-opacity="1" stop-color="rgb(62.840271%, 53.69873%, 90.100098%)" offset="0.40625"/><stop stop-opacity="1" stop-color="rgb(63.163757%, 53.448486%, 90.103149%)" offset="0.410156"/><stop stop-opacity="1" stop-color="rgb(63.48877%, 53.198242%, 90.107727%)" offset="0.414063"/><stop stop-opacity="1" stop-color="rgb(63.813782%, 52.947998%, 90.110779%)" offset="0.417969"/><stop stop-opacity="1" stop-color="rgb(64.138794%, 52.697754%, 90.115356%)" offset="0.421875"/><stop stop-opacity="1" stop-color="rgb(64.46228%, 52.44751%, 90.118408%)" offset="0.425781"/><stop stop-opacity="1" stop-color="rgb(64.787292%, 52.197266%, 90.122986%)" offset="0.429688"/><stop stop-opacity="1" stop-color="rgb(65.112305%, 51.947021%, 90.126038%)" offset="0.433594"/><stop stop-opacity="1" stop-color="rgb(65.437317%, 51.696777%, 90.130615%)" offset="0.4375"/><stop stop-opacity="1" stop-color="rgb(65.760803%, 51.446533%, 90.133667%)" offset="0.441406"/><stop stop-opacity="1" stop-color="rgb(66.085815%, 51.196289%, 90.138245%)" offset="0.445312"/><stop stop-opacity="1" stop-color="rgb(66.410828%, 50.946045%, 90.141296%)" offset="0.449219"/><stop stop-opacity="1" stop-color="rgb(66.73584%, 50.695801%, 90.145874%)" offset="0.453125"/><stop stop-opacity="1" stop-color="rgb(67.059326%, 50.445557%, 90.148926%)" offset="0.457031"/><stop stop-opacity="1" stop-color="rgb(67.384338%, 50.195312%, 90.151978%)" offset="0.460938"/><stop stop-opacity="1" stop-color="rgb(67.709351%, 49.945068%, 90.155029%)" offset="0.464844"/><stop stop-opacity="1" stop-color="rgb(68.034363%, 49.694824%, 90.159607%)" offset="0.46875"/><stop stop-opacity="1" stop-color="rgb(68.357849%, 49.44458%, 90.162659%)" offset="0.472656"/><stop stop-opacity="1" stop-color="rgb(68.682861%, 49.194336%, 90.167236%)" offset="0.476562"/><stop stop-opacity="1" stop-color="rgb(69.006348%, 48.942566%, 90.170288%)" offset="0.480469"/><stop stop-opacity="1" stop-color="rgb(69.33136%, 48.692322%, 90.174866%)" offset="0.484375"/><stop stop-opacity="1" stop-color="rgb(69.656372%, 48.442078%, 90.177917%)" offset="0.488281"/><stop stop-opacity="1" stop-color="rgb(69.981384%, 48.191833%, 90.182495%)" offset="0.492188"/><stop stop-opacity="1" stop-color="rgb(70.304871%, 47.941589%, 90.185547%)" offset="0.496094"/><stop stop-opacity="1" stop-color="rgb(70.629883%, 47.691345%, 90.190125%)" offset="0.5"/><stop stop-opacity="1" stop-color="rgb(70.954895%, 47.441101%, 90.193176%)" offset="0.503906"/><stop stop-opacity="1" stop-color="rgb(71.279907%, 47.190857%, 90.197754%)" offset="0.507812"/><stop stop-opacity="1" stop-color="rgb(71.470642%, 47.058105%, 89.7995%)" offset="0.511719"/><stop stop-opacity="1" stop-color="rgb(71.662903%, 46.925354%, 89.401245%)" offset="0.515625"/><stop stop-opacity="1" stop-color="rgb(71.82312%, 46.818542%, 88.911438%)" offset="0.519531"/><stop stop-opacity="1" stop-color="rgb(71.984863%, 46.711731%, 88.423157%)" offset="0.523438"/><stop stop-opacity="1" stop-color="rgb(72.145081%, 46.604919%, 87.93335%)" offset="0.527344"/><stop stop-opacity="1" stop-color="rgb(72.306824%, 46.498108%, 87.445068%)" offset="0.53125"/><stop stop-opacity="1" stop-color="rgb(72.467041%, 46.391296%, 86.955261%)" offset="0.535156"/><stop stop-opacity="1" stop-color="rgb(72.628784%, 46.284485%, 86.465454%)" offset="0.539062"/><stop stop-opacity="1" stop-color="rgb(72.790527%, 46.177673%, 85.975647%)" offset="0.542969"/><stop stop-opacity="1" stop-color="rgb(72.952271%, 46.070862%, 85.487366%)" offset="0.546875"/><stop stop-opacity="1" stop-color="rgb(73.112488%, 45.96405%, 84.997559%)" offset="0.550781"/><stop stop-opacity="1" stop-color="rgb(73.274231%, 45.857239%, 84.509277%)" offset="0.554688"/><stop stop-opacity="1" stop-color="rgb(73.434448%, 45.750427%, 84.01947%)" offset="0.558594"/><stop stop-opacity="1" stop-color="rgb(73.596191%, 45.643616%, 83.531189%)" offset="0.5625"/><stop stop-opacity="1" stop-color="rgb(73.756409%, 45.536804%, 83.041382%)" offset="0.566406"/><stop stop-opacity="1" stop-color="rgb(73.918152%, 45.429993%, 82.553101%)" offset="0.570312"/><stop stop-opacity="1" stop-color="rgb(74.079895%, 45.321655%, 82.063293%)" offset="0.574219"/><stop stop-opacity="1" stop-color="rgb(74.241638%, 45.214844%, 81.573486%)" offset="0.578125"/><stop stop-opacity="1" stop-color="rgb(74.401855%, 45.108032%, 81.083679%)" offset="0.582031"/><stop stop-opacity="1" stop-color="rgb(74.563599%, 45.001221%, 80.595398%)" offset="0.585938"/><stop stop-opacity="1" stop-color="rgb(74.723816%, 44.894409%, 80.105591%)" offset="0.589844"/><stop stop-opacity="1" stop-color="rgb(74.885559%, 44.787598%, 79.61731%)" offset="0.59375"/><stop stop-opacity="1" stop-color="rgb(75.047302%, 44.680786%, 79.127502%)" offset="0.597656"/><stop stop-opacity="1" stop-color="rgb(75.209045%, 44.573975%, 78.639221%)" offset="0.601563"/><stop stop-opacity="1" stop-color="rgb(75.369263%, 44.467163%, 78.149414%)" offset="0.605469"/><stop stop-opacity="1" stop-color="rgb(75.531006%, 44.360352%, 77.661133%)" offset="0.609375"/><stop stop-opacity="1" stop-color="rgb(75.691223%, 44.25354%, 77.171326%)" offset="0.613281"/><stop stop-opacity="1" stop-color="rgb(75.852966%, 44.146729%, 76.683044%)" offset="0.617188"/><stop stop-opacity="1" stop-color="rgb(76.013184%, 44.039917%, 76.193237%)" offset="0.621094"/><stop stop-opacity="1" stop-color="rgb(76.174927%, 43.933105%, 75.70343%)" offset="0.625"/><stop stop-opacity="1" stop-color="rgb(76.33667%, 43.826294%, 75.213623%)" offset="0.628906"/><stop stop-opacity="1" stop-color="rgb(76.498413%, 43.719482%, 74.725342%)" offset="0.632813"/><stop stop-opacity="1" stop-color="rgb(76.65863%, 43.612671%, 74.235535%)" offset="0.636719"/><stop stop-opacity="1" stop-color="rgb(76.820374%, 43.505859%, 73.747253%)" offset="0.640625"/><stop stop-opacity="1" stop-color="rgb(76.980591%, 43.399048%, 73.257446%)" offset="0.644531"/><stop stop-opacity="1" stop-color="rgb(77.142334%, 43.292236%, 72.769165%)" offset="0.648438"/><stop stop-opacity="1" stop-color="rgb(77.302551%, 43.185425%, 72.279358%)" offset="0.652344"/><stop stop-opacity="1" stop-color="rgb(77.464294%, 43.078613%, 71.791077%)" offset="0.65625"/><stop stop-opacity="1" stop-color="rgb(77.626038%, 42.971802%, 71.30127%)" offset="0.660156"/><stop stop-opacity="1" stop-color="rgb(77.787781%, 42.86499%, 70.812988%)" offset="0.664063"/><stop stop-opacity="1" stop-color="rgb(77.947998%, 42.758179%, 70.323181%)" offset="0.667969"/><stop stop-opacity="1" stop-color="rgb(78.109741%, 42.651367%, 69.833374%)" offset="0.671875"/><stop stop-opacity="1" stop-color="rgb(78.269958%, 42.544556%, 69.343567%)" offset="0.675781"/><stop stop-opacity="1" stop-color="rgb(78.431702%, 42.437744%, 68.855286%)" offset="0.679688"/><stop stop-opacity="1" stop-color="rgb(78.591919%, 42.330933%, 68.365479%)" offset="0.683594"/><stop stop-opacity="1" stop-color="rgb(78.753662%, 42.224121%, 67.877197%)" offset="0.6875"/><stop stop-opacity="1" stop-color="rgb(78.915405%, 42.11731%, 67.38739%)" offset="0.691406"/><stop stop-opacity="1" stop-color="rgb(79.077148%, 42.010498%, 66.899109%)" offset="0.695313"/><stop stop-opacity="1" stop-color="rgb(79.237366%, 41.903687%, 66.409302%)" offset="0.699219"/><stop stop-opacity="1" stop-color="rgb(79.399109%, 41.796875%, 65.921021%)" offset="0.703125"/><stop stop-opacity="1" stop-color="rgb(79.559326%, 41.690063%, 65.431213%)" offset="0.707031"/><stop stop-opacity="1" stop-color="rgb(79.721069%, 41.583252%, 64.941406%)" offset="0.710938"/><stop stop-opacity="1" stop-color="rgb(79.882812%, 41.47644%, 64.451599%)" offset="0.714844"/><stop stop-opacity="1" stop-color="rgb(80.044556%, 41.369629%, 63.963318%)" offset="0.71875"/><stop stop-opacity="1" stop-color="rgb(80.204773%, 41.262817%, 63.473511%)" offset="0.722656"/><stop stop-opacity="1" stop-color="rgb(80.366516%, 41.156006%, 62.985229%)" offset="0.726563"/><stop stop-opacity="1" stop-color="rgb(80.526733%, 41.049194%, 62.495422%)" offset="0.730469"/><stop stop-opacity="1" stop-color="rgb(80.688477%, 40.942383%, 62.007141%)" offset="0.734375"/><stop stop-opacity="1" stop-color="rgb(80.848694%, 40.835571%, 61.517334%)" offset="0.738281"/><stop stop-opacity="1" stop-color="rgb(81.010437%, 40.72876%, 61.029053%)" offset="0.742188"/><stop stop-opacity="1" stop-color="rgb(81.17218%, 40.621948%, 60.539246%)" offset="0.746094"/><stop stop-opacity="1" stop-color="rgb(81.333923%, 40.515137%, 60.050964%)" offset="0.75"/><stop stop-opacity="1" stop-color="rgb(81.494141%, 40.408325%, 59.561157%)" offset="0.753906"/><stop stop-opacity="1" stop-color="rgb(81.655884%, 40.301514%, 59.07135%)" offset="0.757812"/><stop stop-opacity="1" stop-color="rgb(81.816101%, 40.194702%, 58.581543%)" offset="0.761719"/><stop stop-opacity="1" stop-color="rgb(81.977844%, 40.087891%, 58.093262%)" offset="0.765625"/><stop stop-opacity="1" stop-color="rgb(82.138062%, 39.981079%, 57.603455%)" offset="0.769531"/><stop stop-opacity="1" stop-color="rgb(82.299805%, 39.874268%, 57.115173%)" offset="0.773438"/><stop stop-opacity="1" stop-color="rgb(82.461548%, 39.767456%, 56.625366%)" offset="0.777344"/><stop stop-opacity="1" stop-color="rgb(82.623291%, 39.660645%, 56.137085%)" offset="0.78125"/><stop stop-opacity="1" stop-color="rgb(82.783508%, 39.553833%, 55.647278%)" offset="0.785156"/><stop stop-opacity="1" stop-color="rgb(82.945251%, 39.447021%, 55.158997%)" offset="0.789062"/><stop stop-opacity="1" stop-color="rgb(83.105469%, 39.34021%, 54.669189%)" offset="0.792969"/><stop stop-opacity="1" stop-color="rgb(83.267212%, 39.233398%, 54.180908%)" offset="0.796875"/><stop stop-opacity="1" stop-color="rgb(83.428955%, 39.126587%, 53.691101%)" offset="0.800781"/><stop stop-opacity="1" stop-color="rgb(83.590698%, 39.019775%, 53.201294%)" offset="0.804688"/><stop stop-opacity="1" stop-color="rgb(83.750916%, 38.912964%, 52.711487%)" offset="0.808594"/><stop stop-opacity="1" stop-color="rgb(83.912659%, 38.806152%, 52.223206%)" offset="0.8125"/><stop stop-opacity="1" stop-color="rgb(84.072876%, 38.699341%, 51.733398%)" offset="0.816406"/><stop stop-opacity="1" stop-color="rgb(84.234619%, 38.592529%, 51.245117%)" offset="0.820312"/><stop stop-opacity="1" stop-color="rgb(84.394836%, 38.485718%, 50.75531%)" offset="0.824219"/><stop stop-opacity="1" stop-color="rgb(84.55658%, 38.378906%, 50.267029%)" offset="0.828125"/><stop stop-opacity="1" stop-color="rgb(84.718323%, 38.272095%, 49.777222%)" offset="0.832031"/><stop stop-opacity="1" stop-color="rgb(84.880066%, 38.165283%, 49.28894%)" offset="0.835938"/><stop stop-opacity="1" stop-color="rgb(85.040283%, 38.058472%, 48.799133%)" offset="0.839844"/><stop stop-opacity="1" stop-color="rgb(85.202026%, 37.95166%, 48.309326%)" offset="0.84375"/><stop stop-opacity="1" stop-color="rgb(85.362244%, 37.844849%, 47.819519%)" offset="0.847656"/><stop stop-opacity="1" stop-color="rgb(85.523987%, 37.738037%, 47.331238%)" offset="0.851563"/><stop stop-opacity="1" stop-color="rgb(85.684204%, 37.631226%, 46.841431%)" offset="0.855469"/><stop stop-opacity="1" stop-color="rgb(85.845947%, 37.524414%, 46.353149%)" offset="0.859375"/><stop stop-opacity="1" stop-color="rgb(86.00769%, 37.416077%, 45.863342%)" offset="0.863281"/><stop stop-opacity="1" stop-color="rgb(86.169434%, 37.309265%, 45.375061%)" offset="0.867188"/><stop stop-opacity="1" stop-color="rgb(86.329651%, 37.202454%, 44.885254%)" offset="0.871094"/><stop stop-opacity="1" stop-color="rgb(86.491394%, 37.095642%, 44.396973%)" offset="0.875"/><stop stop-opacity="1" stop-color="rgb(86.651611%, 36.988831%, 43.907166%)" offset="0.878906"/><stop stop-opacity="1" stop-color="rgb(86.813354%, 36.882019%, 43.418884%)" offset="0.882812"/><stop stop-opacity="1" stop-color="rgb(86.973572%, 36.775208%, 42.929077%)" offset="0.886719"/><stop stop-opacity="1" stop-color="rgb(87.135315%, 36.668396%, 42.43927%)" offset="0.890625"/><stop stop-opacity="1" stop-color="rgb(87.297058%, 36.561584%, 41.949463%)" offset="0.894531"/><stop stop-opacity="1" stop-color="rgb(87.458801%, 36.454773%, 41.461182%)" offset="0.898438"/><stop stop-opacity="1" stop-color="rgb(87.619019%, 36.347961%, 40.971375%)" offset="0.902344"/><stop stop-opacity="1" stop-color="rgb(87.780762%, 36.24115%, 40.483093%)" offset="0.90625"/><stop stop-opacity="1" stop-color="rgb(87.940979%, 36.134338%, 39.993286%)" offset="0.910156"/><stop stop-opacity="1" stop-color="rgb(88.102722%, 36.027527%, 39.505005%)" offset="0.914062"/><stop stop-opacity="1" stop-color="rgb(88.264465%, 35.920715%, 39.015198%)" offset="0.917969"/><stop stop-opacity="1" stop-color="rgb(88.426208%, 35.813904%, 38.526917%)" offset="0.921875"/><stop stop-opacity="1" stop-color="rgb(88.511658%, 35.75592%, 38.262939%)" offset="0.925781"/><stop stop-opacity="1" stop-color="rgb(88.598633%, 35.699463%, 37.998962%)" offset="0.929688"/><stop stop-opacity="1" stop-color="rgb(88.598633%, 35.699463%, 37.998962%)" offset="0.9375"/><stop stop-opacity="1" stop-color="rgb(88.598633%, 35.699463%, 37.998962%)" offset="1"/></linearGradient></defs><g clip-path="url(#be5d10da47)"><g clip-path="url(#920616d8f3)"><path fill="url(#e716a4b581)" d="M 16.859375 14.179688 L 16.859375 55.382812 L 58.109375 55.382812 L 58.109375 14.179688 Z M 16.859375 14.179688 " fill-rule="nonzero"/></g></g></svg>